<svg id="Layer_1" data-name="Layer 1" xmlns="http://www.w3.org/2000/svg" viewBox="0 0 781.75 173.39"><defs><style>.cls-1{fill:#3c3b54;}.cls-2{fill:#fff;}</style></defs><title>logo-reversed</title><path class="cls-1" d="M157.15,142c0,1.45-5.53,1.9-6.19,3.94s-3.87-.86-5.25.94-2.43-.57-4.41.75-10.88,1.07-13.4,1.07c-7.32,0-13.7.75-17.18-1.71s-6.06-6.45-7.74-12q-2.16-6.84-4.32-14.67A98.59,98.59,0,0,0,93.53,106a37.68,37.68,0,0,0-7.29-11,14.5,14.5,0,0,0-10.8-4.41H70q-4.86,0-5.58,2v39.06q0,11.7,16.56,11.7v5.4H30.26v-5.4q15.84,0,15.84-11.7V46.47Q46.1,35,29,35V29.37H51.5q5.94,0,10.08-.09t8-.27q3.87-.18,8.28-.27t10.71-.09a46.37,46.37,0,0,1,14.58,2.25A37.35,37.35,0,0,1,115,37.11a30,30,0,0,1,7.83,9.36,24.48,24.48,0,0,1,2.88,11.7,24.59,24.59,0,0,1-8.91,19.62,40.07,40.07,0,0,1-10,6.12,63.83,63.83,0,0,1-12.78,4v.54a46,46,0,0,1,14.31,10.35,35.31,35.31,0,0,1,7.65,12q1.08,3.6,2.52,8.64a84.73,84.73,0,0,0,3.33,9.54,32,32,0,0,0,4.41,7.65c1.68,2.1,6.22,4.76,8.52,5.46a22.92,22.92,0,0,0,11.65.91Zm-79-58.46a73.77,73.77,0,0,0,10.44-.72,22.46,22.46,0,0,0,9-3.24,18.28,18.28,0,0,0,6.39-7.2q2.43-4.68,2.43-12.78A23.69,23.69,0,0,0,104,48.27a19.64,19.64,0,0,0-6.3-7.11,25.34,25.34,0,0,0-8.55-3.69,40.74,40.74,0,0,0-9.18-1.08H71.3q-6.84,0-6.84,10.08V80.85q.72,2.7,4.32,2.7Z" transform="translate(-29 -24.7)"/><path class="cls-1" d="M141.3,148.71v-5.4q16.38,0,16.38-13V45.75q0-10.8-17.1-10.8V29.37h30.06q5.94,0,9.27-.09l5.94-.18,5.22-.18q2.61-.09,7.11-.09,40.32,0,40.32,34.92a33.42,33.42,0,0,1-2.43,12.78A28.2,28.2,0,0,1,228.6,87a35.32,35.32,0,0,1-12.78,7,59.55,59.55,0,0,1-18.36,2.52q-5.76,0-11.25-.45a88.5,88.5,0,0,1-10.71-1.53v35.1q0,13.68,17.82,13.68v5.4ZM183.06,35q-7.56,0-7.56,9.54V87.87q4.5.9,9.9,1.44t12.06.54a21.39,21.39,0,0,0,10.17-2.25,21.09,21.09,0,0,0,7-5.94,24,24,0,0,0,4-8.55A40,40,0,0,0,220,63Q220,35,187.74,35Z" transform="translate(-29 -24.7)"/><path class="cls-1" d="M350.05,133.05a17.78,17.78,0,0,1-1,5.22A19.31,19.31,0,0,1,346,144a20.93,20.93,0,0,1-5.05,4.68,11.84,11.84,0,0,1-6.75,2c-7.31,0-12.72-1.23-16.19-3.69s-6.07-6.45-7.74-12c-1.45-4.56-2.88-9.45-4.33-14.67a97.43,97.43,0,0,0-5.12-14.4,37.68,37.68,0,0,0-7.29-11,14.5,14.5,0,0,0-10.8-4.41h-5.41c-3.23,0-5.1.66-5.57,2v39.06q0,11.7,16.56,11.7v5.4H237.55v-5.4q15.82,0,15.84-11.7V46.47q0-11.52-17.1-11.52V29.37h22.5c4,0,7.31,0,10.08-.09s5.43-.15,8-.27,5.33-.21,8.28-.27,6.51-.09,10.71-.09a46.35,46.35,0,0,1,14.57,2.25,37.3,37.3,0,0,1,11.8,6.21,30,30,0,0,1,7.83,9.36,24.59,24.59,0,0,1,2.87,11.7,25.42,25.42,0,0,1-2.33,11.16A25.74,25.74,0,0,1,324,77.79a40.25,40.25,0,0,1-10,6.12,64.24,64.24,0,0,1-12.78,4v.54a45.84,45.84,0,0,1,14.3,10.35,35.36,35.36,0,0,1,7.66,12q1.06,3.6,2.52,8.64a84.73,84.73,0,0,0,3.32,9.54,32.39,32.39,0,0,0,4.42,7.65,7.58,7.58,0,0,0,6.12,3.15c2.88,0,5-2.7,6.3-8.1Zm-64.62-49.5a73.77,73.77,0,0,0,10.44-.72,22.57,22.57,0,0,0,9-3.24,18.35,18.35,0,0,0,6.39-7.2q2.43-4.68,2.43-12.78a23.69,23.69,0,0,0-2.43-11.34A19.57,19.57,0,0,0,305,41.16a25.29,25.29,0,0,0-8.54-3.69,40.88,40.88,0,0,0-9.18-1.08h-8.64c-4.57,0-6.84,3.36-6.84,10.08V80.85c.47,1.8,1.92,2.7,4.32,2.7Z" transform="translate(-29 -24.7)"/><path class="cls-2" d="M355.08,148.72v-5.4q16.38,0,16.38-13V45.76q0-10.8-17.1-10.8V29.38h30.06q5.94,0,9.27-.09l5.94-.18,5.22-.18q2.61-.09,7.11-.09,40.32,0,40.32,34.92a33.42,33.42,0,0,1-2.43,12.78A28.2,28.2,0,0,1,442.38,87a35.32,35.32,0,0,1-12.78,7,59.55,59.55,0,0,1-18.36,2.52q-5.76,0-11.25-.45a88.5,88.5,0,0,1-10.71-1.53v35.1q0,13.68,17.82,13.68v5.4ZM396.84,35q-7.56,0-7.56,9.54V87.88q4.5.9,9.9,1.44t12.06.54a21.39,21.39,0,0,0,10.17-2.25,21.09,21.09,0,0,0,7-5.94,24,24,0,0,0,4.05-8.55A40,40,0,0,0,433.74,63Q433.74,35,401.52,35Z" transform="translate(-29 -24.7)"/><path class="cls-2" d="M524.82,141.16q-2.7,9.54-14.4,9.54-10.26,0-13-11.7-13,11.7-27.54,11.7-9.54,0-14-4t-4.5-12.87q0-22.14,44.64-30.24v-7q0-17.64-13.76-17.64a24.76,24.76,0,0,0-10.33,2q-4.35,2-4.35,7.56a4.32,4.32,0,0,1,1.62,2.25,9.4,9.4,0,0,1,.54,3.15q0,6.84-8.28,6.84a7.45,7.45,0,0,1-5.22-2q-2.16-2-2.16-6.12a14,14,0,0,1,2.53-7.92,24.52,24.52,0,0,1,6.59-6.57,36.94,36.94,0,0,1,20.32-6.21q15,0,21.3,5.58T511.14,96V135q0,6.66,6.12,6.66a9.33,9.33,0,0,0,5.58-2Zm-28.08-31.5a75.79,75.79,0,0,0-11,1.89,37.64,37.64,0,0,0-9.69,3.78,20.73,20.73,0,0,0-6.88,6.21,16,16,0,0,0-2.63,9.36q0,11.7,11.41,11.7a20.28,20.28,0,0,0,8.42-1.53,15,15,0,0,0,5.43-4,19.79,19.79,0,0,0,3.26-5.58,32.61,32.61,0,0,0,1.72-6.12Z" transform="translate(-29 -24.7)"/><path class="cls-2" d="M590.49,133.6a23.83,23.83,0,0,1-5.22,8.37,31.25,31.25,0,0,1-7.65,5.76,36.4,36.4,0,0,1-8.91,3.33,40.08,40.08,0,0,1-9,1.08,32.89,32.89,0,0,1-14.22-3A30.35,30.35,0,0,1,534.87,141a36.39,36.39,0,0,1-6.57-12.24,49,49,0,0,1-2.25-15.12,52,52,0,0,1,2.43-16,37.91,37.91,0,0,1,7.38-13.32,34.67,34.67,0,0,1,12.42-9.09,42.73,42.73,0,0,1,17.55-3.33,29.85,29.85,0,0,1,8.55,1.26,27.62,27.62,0,0,1,7.56,3.51,18,18,0,0,1,5.31,5.49,13.31,13.31,0,0,1,2,7,8,8,0,0,1-3.06,6.21A10.1,10.1,0,0,1,579.51,98c-4.93,0-7.38-2.72-7.38-8.17a21.19,21.19,0,0,1,.27-2.36,22.43,22.43,0,0,0,.27-3.27,5.52,5.52,0,0,0-3.33-5.27,15.73,15.73,0,0,0-6.93-1.63,14.25,14.25,0,0,0-8.91,2.8,22.42,22.42,0,0,0-6.12,7.22,35.87,35.87,0,0,0-3.6,9.84,48.87,48.87,0,0,0-1.17,10.46A59,59,0,0,0,544.05,121a34.82,34.82,0,0,0,4.32,10.83,20.22,20.22,0,0,0,18.18,9.84q12,0,19.26-10.8Z" transform="translate(-29 -24.7)"/><path class="cls-2" d="M594.32,148.72v-5.4q12.42,0,12.42-11V96.52q0-14.22-11-14.22V77.44l26.1-5.58v61.2q0,10.26,13.68,10.26v5.4ZM613,52.06q-9.54,0-9.54-11,0-10.26,10.26-10.26,9.72,0,9.72,10.26Q623.48,52.06,613,52.06Z" transform="translate(-29 -24.7)"/><path class="cls-2" d="M700.75,148.72v-5.4q12.24,0,12.24-11V96.52q0-14.22-10.93-14.22h-28c-1.91,0-2.87.66-2.87,2v50q0,9,16,9v5.4H644.41v-5.4q11.7,0,11.7-9V85A1.91,1.91,0,0,0,654,82.84H639.73V75.28h13.68q2.7,0,2.7-4.84A58.08,58.08,0,0,1,659.35,50a39.38,39.38,0,0,1,8.91-14.26,35,35,0,0,1,13.5-8.34,51.54,51.54,0,0,1,16.83-2.69,44.46,44.46,0,0,1,8.28.9,25.41,25.41,0,0,1,8.82,3.51,22.4,22.4,0,0,1,7,7.2q2.88,4.59,2.88,12A11.63,11.63,0,0,1,725,52a13,13,0,0,1-1.8,3.51,9.21,9.21,0,0,1-2.88,2.61,7.58,7.58,0,0,1-3.87,1,12.37,12.37,0,0,1-6.48-1.62,5.63,5.63,0,0,1-2.7-5.22q0-.72.09-2a7.78,7.78,0,0,1,.63-2.52,11.33,11.33,0,0,1,1.53-2.52,6.53,6.53,0,0,1,2.79-2c-.95-4.32-3-7.26-6.18-8.82a26,26,0,0,0-11.56-2.34A19.07,19.07,0,0,0,683.87,35a23.3,23.3,0,0,0-7.17,7.35A34.51,34.51,0,0,0,672.58,52a38.6,38.6,0,0,0-1.35,9.68v8.78q0,4.84,2.87,4.84h54V133q0,10.29,13.68,10.29v5.4Z" transform="translate(-29 -24.7)"/><path class="cls-2" d="M810.75,133.6a23.55,23.55,0,0,1-5.22,8.37,30.88,30.88,0,0,1-7.65,5.76,36.25,36.25,0,0,1-8.91,3.33,40,40,0,0,1-9,1.08,33,33,0,0,1-14.22-3A30.44,30.44,0,0,1,755.13,141a36.39,36.39,0,0,1-6.57-12.24,49.27,49.27,0,0,1-2.25-15.12,52,52,0,0,1,2.43-16,38.06,38.06,0,0,1,7.38-13.32,34.76,34.76,0,0,1,12.42-9.09,42.8,42.8,0,0,1,17.55-3.33,29.8,29.8,0,0,1,8.55,1.26,27.35,27.35,0,0,1,7.56,3.51,17.79,17.79,0,0,1,5.31,5.49,13.22,13.22,0,0,1,2,7,7.92,7.92,0,0,1-3.06,6.21A10.06,10.06,0,0,1,799.77,98q-7.38,0-7.38-8.17a21.19,21.19,0,0,1,.27-2.36,22.43,22.43,0,0,0,.27-3.27,5.5,5.5,0,0,0-3.33-5.27,15.67,15.67,0,0,0-6.93-1.63,14.29,14.29,0,0,0-8.91,2.8,22.54,22.54,0,0,0-6.12,7.22,36.2,36.2,0,0,0-3.6,9.84,49.52,49.52,0,0,0-1.17,10.46A59.59,59.59,0,0,0,764.31,121a35.06,35.06,0,0,0,4.32,10.83,20.22,20.22,0,0,0,18.18,9.84q12.06,0,19.26-10.8Z" transform="translate(-29 -24.7)"/><path class="cls-1" d="M33.43,173H47.78v3H36.89v7.74h8.86v3H36.89v7.95H48.38v3h-15Z" transform="translate(-29 -24.7)"/><path class="cls-1" d="M64.37,184.93l-7.32-12h4l3.89,6.69c.77,1.33,1.57,2.94,1.57,2.94h.07a32,32,0,0,1,1.51-2.94L72,173h4l-7.31,12,7.8,12.74H72.52L68,190.07c-.8-1.4-1.57-2.83-1.57-2.83H66.4s-.67,1.47-1.47,2.83l-4.48,7.6H56.56Z" transform="translate(-29 -24.7)"/><path class="cls-1" d="M86.24,173h14.35v3H89.71v7.74h8.85v3H89.71v7.95h11.48v3h-15Z" transform="translate(-29 -24.7)"/><path class="cls-1" d="M122.68,172.53a12.69,12.69,0,0,1,9,3.26L130,178.38a11.26,11.26,0,0,0-7.14-2.7c-5.53,0-9.14,4.2-9.14,9.46s3.68,9.76,9.17,9.76a11.17,11.17,0,0,0,7.63-3.22l1.86,2.49a13.26,13.26,0,0,1-9.59,3.92c-7.42,0-12.64-5.67-12.64-12.92A12.34,12.34,0,0,1,122.68,172.53Z" transform="translate(-29 -24.7)"/><path class="cls-1" d="M142.38,173h3.47v16c0,3.78,2.45,6,6.23,6s6.3-2.2,6.3-6.05V173h3.46v16c0,5.49-4,9.17-9.73,9.17s-9.73-3.68-9.73-9.17Z" transform="translate(-29 -24.7)"/><path class="cls-1" d="M179.17,176H170.7v-3h20.4v3h-8.47v21.71h-3.46Z" transform="translate(-29 -24.7)"/><path class="cls-1" d="M200.31,173h3.46v24.72h-3.46Z" transform="translate(-29 -24.7)"/><path class="cls-1" d="M213,173h3.75l6.12,17.47c.46,1.33,1,3.4,1,3.4h.07s.49-2.07.94-3.4L231,173h3.67l-9.1,24.72h-3.46Z" transform="translate(-29 -24.7)"/><path class="cls-1" d="M244,173H258.3v3H247.42v7.74h8.85v3h-8.85v7.95H258.9v3H244Z" transform="translate(-29 -24.7)"/><path class="cls-1" d="M284.41,192.21a9.77,9.77,0,0,0,6.3,2.66c2.31,0,4.27-1.3,4.27-3.64,0-5.36-12-4.2-12-11.8,0-3.85,3.33-6.9,8-6.9a10.1,10.1,0,0,1,7,2.49l-1.57,2.87a8.72,8.72,0,0,0-5.43-2.14c-2.62,0-4.48,1.65-4.48,3.61,0,5.11,12,3.75,12,11.76,0,3.82-2.94,7-7.84,7a11.55,11.55,0,0,1-8.19-3.26Z" transform="translate(-29 -24.7)"/><path class="cls-1" d="M309.12,173h14.35v3H312.59v7.74h8.85v3h-8.85v7.95h11.48v3H309.12Z" transform="translate(-29 -24.7)"/><path class="cls-1" d="M347.1,190.56h-9.31l-2.45,7.11h-3.58l8.9-24.72h3.64l8.89,24.72h-3.61Zm-4.66-14.21s-.56,2.24-1,3.5l-2.76,7.84h7.49l-2.73-7.84c-.42-1.26-.95-3.5-.95-3.5Z" transform="translate(-29 -24.7)"/><path class="cls-1" d="M362.49,173h7.56a12.53,12.53,0,0,1,4.63.56c2.52,1,4.16,3.43,4.16,6.69a6.79,6.79,0,0,1-4.44,6.69V187a6.69,6.69,0,0,1,.73,1.12l5.25,9.59h-3.92l-5.21-9.84H366v9.84h-3.47Zm8.44,11.87a4.11,4.11,0,0,0,4.38-4.48,4.05,4.05,0,0,0-2-3.82A6.83,6.83,0,0,0,370,176h-4v8.86Z" transform="translate(-29 -24.7)"/><path class="cls-1" d="M401.49,172.53a12.69,12.69,0,0,1,9,3.26l-1.71,2.59a11.26,11.26,0,0,0-7.14-2.7c-5.54,0-9.14,4.2-9.14,9.46s3.67,9.76,9.17,9.76a11.17,11.17,0,0,0,7.63-3.22l1.86,2.49a13.27,13.27,0,0,1-9.6,3.92c-7.42,0-12.63-5.67-12.63-12.92A12.34,12.34,0,0,1,401.49,172.53Z" transform="translate(-29 -24.7)"/><path class="cls-1" d="M421.54,173H425v10.86h12.82V173h3.46v24.72h-3.46V186.81H425v10.86h-3.46Z" transform="translate(-29 -24.7)"/><path class="cls-1" d="M471.2,184.4v-.07S468,183.21,468,178.9c0-4.09,3.22-6.37,7.59-6.37a15.52,15.52,0,0,1,3,.39l-.87,2.76a11,11,0,0,0-1.86-.21c-2.45,0-4.37,1.37-4.37,3.78,0,1.54.73,3.89,4.55,3.89h4.59v-3.36H484v3.36h3.29v3H484v3.29c0,5.5-3.26,8.65-8.54,8.65s-8.58-3.19-8.58-7.35A6.61,6.61,0,0,1,471.2,184.4Zm4.24,10.5c3.15,0,5.15-1.71,5.15-5.6v-3.15h-4.73c-3.5,0-5.46,1.65-5.46,4.41C470.4,192.94,472.36,194.9,475.44,194.9Z" transform="translate(-29 -24.7)"/><path class="cls-1" d="M512.61,173h7.56a12.5,12.5,0,0,1,4.62.56c2.52,1,4.16,3.43,4.16,6.69a6.79,6.79,0,0,1-4.44,6.69V187a6.69,6.69,0,0,1,.73,1.12l5.25,9.59h-3.92l-5.21-9.84h-5.29v9.84h-3.46ZM521,184.82a4.11,4.11,0,0,0,4.38-4.48,4.05,4.05,0,0,0-2-3.82,6.83,6.83,0,0,0-3.4-.56h-4v8.86Z" transform="translate(-29 -24.7)"/><path class="cls-1" d="M540.71,173h14.35v3H544.18v7.74H553v3h-8.85v7.95h11.48v3H540.71Z" transform="translate(-29 -24.7)"/><path class="cls-1" d="M577.15,172.53a12.69,12.69,0,0,1,9,3.26l-1.71,2.59a11.26,11.26,0,0,0-7.14-2.7c-5.53,0-9.14,4.2-9.14,9.46s3.68,9.76,9.17,9.76a11.17,11.17,0,0,0,7.63-3.22l1.86,2.49a13.26,13.26,0,0,1-9.59,3.92c-7.42,0-12.64-5.67-12.64-12.92A12.34,12.34,0,0,1,577.15,172.53Z" transform="translate(-29 -24.7)"/><path class="cls-1" d="M597.2,173h7.56a12.46,12.46,0,0,1,4.62.56c2.52,1,4.17,3.43,4.17,6.69a6.79,6.79,0,0,1-4.45,6.69V187a7,7,0,0,1,.74,1.12l5.25,9.59h-3.92L606,187.83h-5.28v9.84H597.2Zm8.44,11.87a4.11,4.11,0,0,0,4.37-4.48,4.05,4.05,0,0,0-2-3.82,6.78,6.78,0,0,0-3.39-.56h-4v8.86Z" transform="translate(-29 -24.7)"/><path class="cls-1" d="M625,173h3.46v16c0,3.78,2.45,6,6.23,6s6.3-2.2,6.3-6.05V173h3.47v16c0,5.49-4,9.17-9.73,9.17s-9.73-3.68-9.73-9.17Z" transform="translate(-29 -24.7)"/><path class="cls-1" d="M656.46,173h3.46v24.72h-3.46Z" transform="translate(-29 -24.7)"/><path class="cls-1" d="M677.6,176h-8.47v-3h20.4v3h-8.47v21.71H677.6Z" transform="translate(-29 -24.7)"/><path class="cls-1" d="M700,173h3.64l5.67,13.38c.56,1.36,1.23,3.32,1.23,3.32h.07s.66-2,1.22-3.32L717.46,173h3.64l2,24.72h-3.43l-1.23-15.58c-.1-1.51,0-3.64,0-3.64h-.07s-.74,2.28-1.33,3.64l-4.94,11.13H709l-4.9-11.13c-.56-1.33-1.33-3.71-1.33-3.71h-.07s0,2.2-.07,3.71l-1.19,15.58H698Z" transform="translate(-29 -24.7)"/><path class="cls-1" d="M734.71,173h14.36v3H738.18v7.74H747v3h-8.86v7.95h11.48v3H734.71Z" transform="translate(-29 -24.7)"/><path class="cls-1" d="M760.44,173h3.43l11,16.07c.91,1.33,2.07,3.57,2.07,3.57H777s-.25-2.2-.25-3.57V173h3.47v24.72h-3.4l-11-16c-.91-1.37-2.07-3.61-2.07-3.61h-.07s.25,2.2.25,3.61v16h-3.47Z" transform="translate(-29 -24.7)"/><path class="cls-1" d="M797.89,176h-8.47v-3h20.41v3h-8.47v21.71h-3.47Z" transform="translate(-29 -24.7)"/></svg>